<?xml version="1.0" encoding="UTF-8"?>
<svg id="Layer_1" data-name="Layer 1" xmlns="http://www.w3.org/2000/svg" viewBox="0 0 1080 1080">
  <defs>
    <style>
      .cls-1 {
        letter-spacing: 0em;
      }

      .cls-2 {
        font-family: Gilroy-BlackItalic, Gilroy-BlackItalic;
        font-size: 156.13px;
        font-style: italic;
        font-weight: 800;
      }

      .cls-2, .cls-3 {
        fill: #231f20;
      }

      .cls-4 {
        letter-spacing: 0em;
      }

      .cls-3 {
        stroke-width: 0px;
      }

      .cls-5 {
        letter-spacing: 0em;
      }
    </style>
  </defs>
  <path class="cls-3" d="M441.8,342.75v324.67c0,41.15-33.35,74.5-74.5,74.5h-50.92l-56.86,67.08c-3.78,4.47-10.95,3.3-13.11-2.14l-25.71-64.94h-.25c-4.93-12.53-9.75-25.12-14.82-37.59-2.76-6.78-3.32-12.72,1.2-19.37,7.75-11.43,9.29-24.23,7.86-38.07-2.06-20.08-3.39-40.42,10.52-57.9,7.4-9.31,14.59-18.85,21.39-28.6,3.22-4.61,5.22-10.49.62-15.21-5.18-5.32-10.47-1.35-14.51,2.22-7.57,6.65-14.48,14.05-21.82,20.93-3.16,2.97-6.38,8.52-11.31,4.82-4.16-3.14-2.08-8.58-.14-12.74,8.19-17.42,16.58-34.75,24.85-52.12,2.76-5.8,5.65-11.55,7.92-17.52,1.72-4.45,1.81-9.27-2.64-12.45-4.95-3.49-8.77-.29-11.97,3.1-3.14,3.32-5.99,6.94-8.58,10.7-9.87,14.36-19.51,28.87-29.41,43.2-2.27,3.3-4.76,8.1-9.39,6.71-4.82-1.46-3.66-6.84-3.64-10.81.08-19.49,6.15-37.89,10.24-56.67,1.75-7.98,5.01-15.9,3.24-24.31-1.06-5.01-2.95-10.2-8.6-11.41-6.21-1.35-9.08,3.64-11.16,8.19-2.85,6.23-5.24,12.7-7.32,19.22-6.73,20.95-13.18,41.98-19.8,62.95-1.08,3.37-1.58,8.11-6.15,7.96-4.18-.15-5.32-4.68-6.48-8.04-3.89-11.35-5.15-23.19-5.8-35.1-.64-11.89-1.27-23.86-5.24-35.18-2.22-6.34-6.5-11.82-14.21-10.39-8.11,1.5-8.92,8.44-8.5,15.09,1.52,23.77,2.49,47.61,5.2,71.24,2.39,20.93,7.17,41.6,16.85,60.64,6.38,12.57,13.7,14.23,25.64,6.57,7.81-5.01,13.94-11.82,20.18-18.56,3.72-4.03,7.27-12.1,13.99-7.05,6.25,4.7,2.58,11.87-.93,17.39-7.61,11.99-15.48,23.84-23.42,35.62-7.09,10.49-11.82,21.7-11.53,40.9,5.59,18.64,10.76,43.68,14.21,69.06.14.98.42,1.83.85,2.58h-17.19c-41.13,0-74.5-33.35-74.5-74.5v-324.67c0-41.13,33.35-74.5,74.5-74.5h145.33c5.65,14.78,11.55,29.49,17.54,44.16,2.24,5.47,2.56,9.91-1.31,15.23-8.75,11.99-11.08,25.67-8.85,40.42,3.82,25.13-.1,48.25-18.21,67.71-5.57,5.99-10.25,12.91-14.69,19.83-2.87,4.45-3.47,9.83,1.31,13.68,4.47,3.6,9.04,1.16,12.45-1.91,8.17-7.32,15.86-15.21,23.86-22.73,2.87-2.7,5.94-7.29,10.35-3.99,3.78,2.81,2.41,7.73.71,11.47-6.46,14.17-13.2,28.2-19.89,42.25-3.91,8.29-8.04,16.46-11.87,24.79-2.52,5.53-5.09,11.97.85,16.31,6.67,4.88,10.83-1.54,14.8-5.69,2.83-2.95,5.09-6.48,7.42-9.85,9.89-14.32,19.66-28.72,29.61-43.02,1.77-2.54,3.72-6.07,7.4-5.18,4.66,1.14,3.87,5.67,3.93,9.16.27,15.27-3.3,29.97-6.78,44.68-2.54,10.7-5.3,21.36-6.88,32.21-1.02,7,.83,14.8,8.48,17,8.17,2.33,10.41-5.65,13.2-11.16,1.83-3.64,2.87-7.71,4.12-11.62,6.92-21.82,13.74-43.68,20.76-65.48,1.2-3.72,1.27-9.46,6.21-9.64,5.65-.19,6.44,5.84,7.67,9.97,3.33,10.99,4.61,22.34,5.19,33.81.62,11.87,1.25,23.84,5.49,35.1,2.43,6.44,6.96,11.37,14.63,9.5,7.25-1.75,8.08-8.1,7.69-14.28-1.52-23.75-2.56-47.55-5.05-71.18-2.2-21.01-7.48-41.5-16.65-60.68-6.46-13.49-13.84-15.07-26.43-6.82-7.75,5.09-13.9,11.85-20.07,18.66-3.49,3.84-6.9,10.95-12.99,6.98-6.88-4.49-3.41-11.6-.02-17.12,6.23-10.14,12.97-19.97,19.51-29.91,8.35-12.7,16.87-25.31,15.28-48.75-4.59-17.83-10.43-42.73-13.94-68.1-.4-2.91-2.31-4.57-4.63-5.8h21.11c41.15,0,74.5,33.37,74.5,74.5Z"/>
  <text class="cls-2" transform="translate(470.53 497.74)"><tspan x="0" y="0">Sau</tspan><tspan class="cls-4" x="278.07" y="0">t</tspan><tspan x="338.81" y="0">i</tspan><tspan x="0" y="137.09">Sa</tspan><tspan class="cls-5" x="187.83" y="137.09">l</tspan><tspan x="228.73" y="137.09">a</tspan><tspan class="cls-1" x="324.75" y="137.09">m</tspan><tspan x="457.31" y="137.09">a</tspan></text>
</svg>